<svg xmlns="http://www.w3.org/2000/svg" viewBox="0 0 820 480" font-family="'Noto Sans KR','Malgun Gothic',sans-serif">
  <rect x="1" y="1" width="818" height="478" rx="18" fill="#ffffff" stroke="#e5e8ea"/>
  <!-- header -->
  <text x="40" y="58" font-size="30" font-weight="800" fill="#191c1f">🎓 Anthropic Academy — 무료 AI 강의</text>
  <text x="40" y="92" font-size="17" fill="#6b46c1" font-weight="700">150+ 레슨 · 수료증 발급 · 전 세계 누구나 무료</text>
  <line x1="40" y1="112" x2="780" y2="112" stroke="#eef0f2" stroke-width="2"/>

  <!-- track 1 -->
  <g>
    <rect x="40" y="136" width="230" height="256" rx="14" fill="#f7f5ff" stroke="#e6ddff"/>
    <circle cx="72" cy="172" r="18" fill="#6b46c1"/>
    <text x="72" y="179" font-size="18" font-weight="800" fill="#fff" text-anchor="middle">1</text>
    <text x="102" y="179" font-size="19" font-weight="800" fill="#191c1f">AI Fluency</text>
    <text x="64" y="220" font-size="15" fill="#4a4f55">비개발자·일반인용</text>
    <text x="64" y="246" font-size="15" fill="#4a4f55">AI 이해와 활용</text>
    <text x="64" y="272" font-size="15" fill="#4a4f55">기초 과정</text>
    <text x="64" y="360" font-size="13" fill="#8a7bbd" font-weight="700">👉 AI 입문자 추천</text>
  </g>

  <!-- track 2 -->
  <g>
    <rect x="295" y="136" width="230" height="256" rx="14" fill="#f2f9f5" stroke="#cdeede"/>
    <circle cx="327" cy="172" r="18" fill="#12805c"/>
    <text x="327" y="179" font-size="18" font-weight="800" fill="#fff" text-anchor="middle">2</text>
    <text x="357" y="179" font-size="19" font-weight="800" fill="#191c1f">제품 교육</text>
    <text x="319" y="220" font-size="15" fill="#4a4f55">클로드를 실무에서</text>
    <text x="319" y="246" font-size="15" fill="#4a4f55">잘 쓰는 방법</text>
    <text x="319" y="272" font-size="15" fill="#4a4f55">문서·기획·분석</text>
    <text x="319" y="360" font-size="13" fill="#3aa07a" font-weight="700">👉 직장인·실무자</text>
  </g>

  <!-- track 3 -->
  <g>
    <rect x="550" y="136" width="230" height="256" rx="14" fill="#eef5ff" stroke="#d5e6fb"/>
    <circle cx="582" cy="172" r="18" fill="#2563eb"/>
    <text x="582" y="179" font-size="18" font-weight="800" fill="#fff" text-anchor="middle">3</text>
    <text x="612" y="179" font-size="19" font-weight="800" fill="#191c1f">개발자 심화</text>
    <text x="574" y="220" font-size="15" fill="#4a4f55">API 활용</text>
    <text x="574" y="246" font-size="15" fill="#4a4f55">Claude Code</text>
    <text x="574" y="272" font-size="15" fill="#4a4f55">코딩 생산성</text>
    <text x="574" y="360" font-size="13" fill="#5b8def" font-weight="700">👉 개발자 추천</text>
  </g>

  <!-- footer -->
  <text x="40" y="436" font-size="14" fill="#767b80">✅ 수료 시 링크드인 공유용 수료증 발급 · 응시료·자격요건·마감 없음</text>
  <text x="780" y="464" font-size="11" fill="#a0a5aa" text-anchor="end">자료 정리: 키워드픽 (출처: 앤트로픽 발표·보도 종합)</text>
</svg>
